<svg xmlns="http://www.w3.org/2000/svg" width="562.785" height="511.589" viewBox="0 0 562.785 511.589">
  <path id="Path_201" data-name="Path 201" d="M303.01,104.8c14.227,15.357,29.64,29.716,47.143,41.218,23.371,15.359,50.762,23.225,77.982,28.613,88.731,17.561,118.308,90.579,108.141,161.748-5.326,37.286-36.705,68.149-69.777,83.213-19.322,8.8-41.061,13.158-62.017,9.744-18.677-3.043-35.65-12.021-51.243-22.39-15.928-10.592-29.153-21.25-48.825-24.031-31.861-4.5-53.377,15.029-71.233,38.337-22.718,29.653-48.706,50.583-85.652,58.9-36.366,8.189-76.611,3.855-108.867-15.487C2.731,443.121-5.348,402.394,3.035,363.33c5.21-24.278,16.016-46.841,27.4-68.747,10.445-20.106,19.6-41.519,28.033-62.638C75.62,189,88.655,141.041,78.082,94.8a139.552,139.552,0,0,0-5.175-17.382c-2.872-7.752-6.5-15.57-6.179-23.832C68.193,15.885,121.534-.06,152.035,0c23.973.047,47.7,7.7,67.911,20.587C248.489,38.784,269.419,66.4,291.572,92Q297.176,98.473,303.01,104.8Z" transform="translate(25.335) rotate(3)" fill="#f0ac23"/>
</svg>
